# xmcd
#
# Track frame offsets:
#	150
#	16545
#	35239
#	52318
#	65148
#	80792
#	93634
#	105870
#	121691
#	129312
#	144903
#	170433
#	184887
#	188621
#	193350
#	206658
#	228204
#	240759
#	258354
#	276879
#	296812
#	310545
#	329186
#
# Disc length: 4446 seconds
#
# Revision: 0
# Processed by: cddbd v1.5PL3 Copyright (c) Steve Scherf et al.
# Submitted via: dBpowerAMP V4.0
#
DISCID=50115c17
DTITLE=The Outback Singers - Australian Spirit in Song
DYEAR=1900
DGENRE=Country
TTITLE0=I still call Australia Home
TTITLE1=Wild Colonial Boy
TTITLE2=A Pub with no Beer
TTITLE3=Duncan
TTITLE4=True Blue
TTITLE5=Click Go The Shears
TTITLE6=Tie Me Kangaroo Down Sport
TTITLE7=Botany Bay
TTITLE8=Along The Road To Gundagai
TTITLE9=My Boomerang Won't Come Back
TTITLE10=And The Band Played Waltzing Matilda
TTITLE11=Waltzing Matilda
TTITLE12=Advance Australia Fair
TTITLE13=Waltzing Matilda
TTITLE14=Wild Colonial Boy
TTITLE15=The Flying Pieman
TTITLE16=Botany Bay
TTITLE17=Dick Pigs Medley
TTITLE18=Waves of Bondi Medley
TTITLE19=Heel and Toe Polka
TTITLE20=Click Go The Shears
TTITLE21=Queensland Backstep Medley
TTITLE22=Gulupede Medley
EXTD=
EXTT0=
EXTT1=
EXTT2=
EXTT3=
EXTT4=
EXTT5=
EXTT6=
EXTT7=
EXTT8=
EXTT9=
EXTT10=
EXTT11=
EXTT12=
EXTT13=
EXTT14=
EXTT15=
EXTT16=
EXTT17=
EXTT18=
EXTT19=
EXTT20=
EXTT21=
EXTT22=
PLAYORDER=
